# xmcd
#
# Track frame offsets:
#	150
#	13747
#	26170
#	38326
#	51520
#	68912
#	80915
#	93304
#	104749
#	117053
#	127761
#	139444
#	152556
#	164741
#	175399
#	185428
#	199244
#
# Disc length: 2796 seconds
#
# Revision: 1
# Processed by: cddbd v1.5.2PL0 Copyright (c) Steve Scherf et al.
# Submitted via: EasyCDDAExtractor 5.0.6
#
DISCID=f30aea11
DTITLE=The Rob Ryan Roadshow - Cold Hard Truth
DYEAR=2013
DGENRE=Country
TTITLE0=Good For Nothing 
TTITLE1=I Wonder Where You Are Tonight
TTITLE2=Cold Hard Truth 
TTITLE3=I Know 
TTITLE4=Up Jumped The Devil 
TTITLE5=Thank Your Jesus 
TTITLE6=Long Distance Love Affair 
TTITLE7=You Fool Again 
TTITLE8=Big River 
TTITLE9=Plain Jane
TTITLE10=Like Iss 
TTITLE11=Better Things To Do 
TTITLE12=I Thought You Knew
TTITLE13=King Of The Losers 
TTITLE14=Soon Be Mine
TTITLE15=Freight Train Boogie
TTITLE16=What Have I Got Myself Into
EXTD=
EXTT0=
EXTT1=
EXTT2=
EXTT3=
EXTT4=
EXTT5=
EXTT6=
EXTT7=
EXTT8=
EXTT9=
EXTT10=
EXTT11=
EXTT12=
EXTT13=
EXTT14=
EXTT15=
EXTT16=
PLAYORDER=
